<svg
  width="17"
  height="22"
  viewBox="0 0 17 22"
  fill="none"
  xmlns="http://www.w3.org/2000/svg"
>
  <path d="M7.61644 0H8.7882V2.1725H7.61644V0Z" fill="#B0D944" />
  <path d="M7.03056 2.86V3.3H5.8588V3.85H10.5458V3.3H9.37408V2.4475H8.20232V2.86H7.03056Z" fill="#B0D944" />
  <path d="M11.7176 4.125H8.20232V4.5375H4.68704V5.5275H11.7176V4.125Z" fill="#B0D944" />
  <path d="M12.8894 5.8025H8.20232V6.215H3.51528V7.205H12.8894V5.8025Z" fill="#B0D944" />
  <path d="M12.8894 7.48H8.20232V7.8925H3.51528V8.8825H12.8894V7.48Z" fill="#B0D944" />
  <path d="M14.0611 9.1575H8.20232V9.57H2.34352V10.56H14.0611V9.1575Z" fill="#B0D944" />
  <path d="M14.0611 10.835H8.20232V11.2475H2.34352V12.2375H14.0611V10.835Z" fill="#B0D944" />
  <path d="M15.2329 12.5125H8.20232V12.925H1.17176V13.915H15.2329V12.5125Z" fill="#B0D944" />
  <path d="M16.4046 14.19H8.20232V14.6025H0V15.5925H16.4046V14.19Z" fill="#B0D944" />
  <path d="M16.4046 15.8675H8.20232V16.28H0V17.27H16.4046V15.8675Z" fill="#B0D944" />
  <path d="M16.4046 17.545H8.20232V17.9575H0V18.9475H16.4046V17.545Z" fill="#B0D944" />
  <path d="M14.0611 19.2225H8.20232V19.635H2.34352V20.625H14.0611V19.2225Z" fill="#B0D944" />
  <path d="M11.7176 20.9H8.20232V21.3125H4.68704V22H11.7176V20.9Z" fill="#B0D944" />
</svg>
