<svg width="182" height="222" viewBox="0 0 913 1112" fill="none" xmlns="http://www.w3.org/2000/svg">
<path d="M716.584 587.51C752.934 593.55 800.734 609.37 820.904 641.57C834.384 663.09 840.244 686.63 835.834 701.56L869.944 707.64C876.764 684.56 855.904 570.87 750.774 545.85C750.774 545.85 734.114 539.64 720.404 560.52C704.194 585.21 716.584 587.51 716.584 587.51Z" fill="black" stroke="black" stroke-width="0.5" stroke-miterlimit="10"/>
<path d="M725.114 585.55C765.914 591.45 804.514 609.58 824.684 641.78C838.164 663.3 844.024 686.84 839.614 701.77L866.504 706.619C873.324 683.539 852.004 575.859 751.014 549.459C751.014 549.459 734.094 544.029 721.514 565.369C716.964 573.079 716.074 578.519 716.584 581.659C717.164 585.249 722.624 585.2 725.114 585.56V585.55Z" fill="#282828"/>
<path d="M505.204 264.409C507.214 269.289 509.394 274.179 512.134 278.679C514.044 281.829 516.844 284.549 519.614 287.049C520.804 288.129 522.934 288.159 525.534 288.939C527.554 281.679 526.554 276.109 524.964 270.649C523.594 265.929 522.054 261.239 520.264 256.659C512.394 236.559 505.484 216.129 499.244 195.469C497.824 190.769 496.144 186.089 493.994 181.699C490.124 173.799 485.164 166.679 477.344 162.039C472.684 159.269 468.674 159.889 465.344 163.989C461.884 168.259 462.004 173.069 463.424 177.999C465.554 185.379 469.244 191.999 473.904 198.019C485.164 212.579 493.244 228.699 498.554 246.289C500.414 252.439 502.754 258.459 505.204 264.399V264.409Z" fill="white"/>
<path d="M421.944 123.94C428.794 125.22 434.334 123.08 439.724 120.79C441.644 116.95 440.724 113.11 440.734 109.38C440.784 94.21 441.684 79.14 444.894 64.24C448.044 49.6 453.684 36.13 462.054 23.72C464.544 20.02 467.824 16.67 468.824 10.21C465.814 8.87997 463.224 7.26996 460.404 6.56996C450.384 4.10996 440.224 3.70994 429.994 5.29994C426.104 5.90994 423.824 8.31992 422.894 11.7799C420.834 19.4399 418.504 27.0899 417.374 34.9099C413.744 60.2099 414.584 85.51 418.764 110.69C419.494 115.1 420.854 119.41 421.954 123.92L421.944 123.94Z" fill="#96745A"/>
<path d="M725.014 478.79C716.444 461.39 706.314 444.94 694.714 429.46C674.494 402.46 653.884 375.75 633.474 348.89C625.454 338.33 617.464 327.73 609.604 317.05C594.754 296.86 582.024 275.36 570.094 253.35C555.104 225.71 539.974 198.14 524.584 170.73C519.024 160.83 512.624 151.4 506.404 141.89C501.594 134.53 495.544 128.28 488.294 123.23C478.654 116.53 468.374 114.22 457.114 118.63C453.244 120.15 449.454 121.89 445.564 123.36C433.054 128.09 420.264 131.75 406.754 129.28C400.484 128.14 394.194 126.24 388.374 123.64C373.564 117.03 361.314 120.49 350.064 131.38C337.234 143.79 328.574 158.77 322.214 175.15C318.104 185.73 314.464 196.52 311.104 207.36C289.884 275.61 258.034 338.55 216.754 396.81C203.384 415.68 189.894 434.46 178.734 454.77C163.934 481.69 150.264 509.13 139.884 538.12C134.754 552.43 131.784 567.27 128.744 582.13C124.654 602.15 122.254 631.71 125.194 659.78C126.414 671.47 128.124 682.83 131.054 693.94C146.144 751.14 173.164 801.73 216.344 842.88C233.804 859.52 253.914 872.24 276.334 881.25C277.294 881.64 278.304 881.93 279.304 882.2C290.664 885.14 316.744 891.91 325.754 893.37C335.594 896.08 345.374 896.11 355.014 896.28C382.474 896.74 409.394 892.87 435.764 885.07C443.744 882.71 451.884 880.88 459.984 878.93C476.534 874.95 493.174 876.55 509.744 878.56C525.164 880.43 540.494 882.97 555.904 884.89C563.724 885.87 578.234 886.17 586.794 886.06C601.964 885.86 616.984 882.95 629.764 881.12C643.434 878.93 655.754 873.82 667.414 867.07C691.404 853.16 711.354 834.78 726.774 811.71C750.504 776.22 765.134 737.11 772.624 695.18C775.634 678.3 776.784 661.28 775.494 644.27C774.554 631.85 772.414 619.45 769.804 607.25C760.214 562.61 745.244 519.8 725.044 478.82L725.014 478.79ZM462.584 186.24C460.624 182.23 459.344 177.71 458.704 173.28C457.774 166.83 459.994 161.29 465.794 157.7C469.994 155.1 474.114 154.79 478.514 157.75C486.244 162.95 492.364 169.53 496.564 177.79C498.614 181.82 500.454 186.04 501.754 190.36C509.174 215.03 517.914 239.23 526.714 263.42C528.894 269.41 529.964 275.79 531.544 282C530.904 286.04 531.014 290.21 527.144 292.28C522.854 294.56 519.064 292.26 515.784 289.46C511.084 285.44 507.734 280.36 505.454 274.69C501.374 264.51 497.194 254.34 493.774 243.93C488.874 229.02 481.904 215.34 472.464 202.78C468.624 197.67 465.384 192.01 462.574 186.25L462.584 186.24ZM428.384 699.91C428.074 699.41 427.594 698.92 427.544 698.4C427.524 698.15 428.314 697.78 428.784 697.58C428.874 697.54 429.414 698.11 429.354 698.23C429.104 698.82 428.714 699.36 428.374 699.92L428.384 699.91Z" fill="#C6F2B1"/>
<path d="M392.034 120.5C388.304 118.82 384.394 117.85 380.434 116.97C379.814 117 369.384 114.14 359.314 119.57C352.054 123.48 346.624 129.3 341.654 134.74C330.504 146.95 323.004 161.44 317.344 176.82C312.254 190.68 307.654 204.72 303.064 218.76C284.474 275.7 257.904 328.709 224.584 378.389C216.774 390.039 208.654 401.48 200.564 412.94C175.504 448.42 155.894 486.82 139.644 526.99C132.074 545.69 126.854 565.129 124.304 585.099C121.454 607.449 118.004 622.13 121.244 660.01C124.004 692.21 133.684 722.68 147.584 751.919C161.804 781.839 178.894 809.879 201.794 834.149C222.644 856.259 246.224 874.699 274.874 885.109C287.904 889.849 315.614 895.8 327.794 897.83C363.964 903.85 399.534 899.409 434.654 889.93C443.064 887.659 451.484 885.449 459.944 883.379C477.624 879.049 495.374 880.929 513.084 883.099C529.254 885.079 545.364 887.569 561.554 889.409C568.094 890.149 574.694 890.219 581.144 890.419C596.894 891.07 611.654 888.03 631.564 884.76C650.164 881.53 666.534 873.17 681.874 862.53C704.654 846.74 723.054 826.79 737.174 802.99C758.904 766.35 772.814 726.93 778.444 684.68C781.734 660.01 779.964 635.5 774.844 611.23C764.084 560.16 747.144 511.269 722.534 465.149C710.714 442.989 695.774 422.91 680.634 402.99C666.424 384.27 652.224 365.529 637.634 347.109C609.784 311.929 585.684 274.43 564.724 234.74C548.454 203.93 531.924 173.21 512.684 144.07C507.014 135.48 500.884 127.299 492.364 121.31C488.974 118.93 485.364 116.76 481.644 114.94C475.304 111.83 468.594 111.059 461.734 113.149C456.334 114.789 450.974 116.56 444.164 118.72C444.454 96.2795 445.274 75.1695 451.464 54.6096C454.664 43.9696 459.724 34.2995 465.844 25.0995C467.934 21.9595 470.034 18.7595 471.614 15.3495C473.704 10.8395 472.394 7.29949 468.074 4.79949C466.464 3.86949 464.664 3.13958 462.874 2.63958C451.714 -0.500419 440.354 0.0495272 428.994 0.959527C425.294 1.25953 422.584 3.42952 420.944 6.57952C419.374 9.57952 417.814 12.7396 417.124 16.0096C415.324 24.5196 413.844 33.1095 412.554 41.7095C411.884 46.1995 409.734 63.6795 412.124 90.1895C412.974 99.5895 414.394 115.76 417.214 125.77C417.214 125.77 405.954 126.77 392.024 120.49L392.034 120.5ZM418.754 110.71C414.584 85.5295 413.734 60.2295 417.364 34.9295C418.484 27.1095 420.824 19.4595 422.884 11.7995C423.814 8.33949 426.094 5.92951 429.984 5.31951C440.214 3.71951 450.374 4.11953 460.394 6.58953C463.214 7.27953 465.804 8.89955 468.814 10.2295C467.814 16.6895 464.544 20.0396 462.044 23.7396C453.674 36.1396 448.034 49.6196 444.884 64.2596C441.674 79.1696 440.774 94.2295 440.724 109.399C440.714 113.129 441.634 116.97 439.714 120.81C434.334 123.1 428.784 125.24 421.934 123.96C420.834 119.45 419.474 115.14 418.744 110.73L418.754 110.71ZM726.754 811.669C711.334 834.74 691.374 853.12 667.394 867.03C655.734 873.79 643.414 878.89 629.744 881.08C616.964 882.91 601.944 885.82 586.774 886.02C578.214 886.13 563.714 885.829 555.884 884.849C540.474 882.929 525.134 880.39 509.724 878.52C493.154 876.52 476.504 874.919 459.964 878.889C451.864 880.839 443.724 882.67 435.744 885.03C409.374 892.84 382.454 896.71 354.994 896.24C345.354 896.08 335.574 896.05 325.734 893.33C316.724 891.87 290.654 885.099 279.284 882.159C278.274 881.889 277.274 881.6 276.314 881.21C253.904 872.2 233.794 859.479 216.324 842.839C173.134 801.679 146.114 751.099 131.034 693.899C128.104 682.799 126.394 671.43 125.174 659.74C122.234 631.67 124.644 602.109 128.724 582.089C131.754 567.229 134.734 552.4 139.864 538.08C150.244 509.1 163.914 481.65 178.714 454.73C189.884 434.43 203.364 415.64 216.734 396.77C258.014 338.52 289.864 275.58 311.084 207.32C314.454 196.48 318.094 185.69 322.194 175.11C328.554 158.72 337.214 143.75 350.044 131.34C361.294 120.45 373.554 116.99 388.354 123.6C394.174 126.2 400.464 128.1 406.734 129.24C420.234 131.7 433.024 128.05 445.544 123.32C449.434 121.85 453.214 120.1 457.094 118.59C468.354 114.18 478.644 116.5 488.274 123.19C495.524 128.23 501.574 134.49 506.384 141.85C512.604 151.36 519.004 160.79 524.564 170.69C539.964 198.11 555.084 225.67 570.074 253.31C582.014 275.32 594.734 296.83 609.584 317.01C617.444 327.69 625.434 338.289 633.454 348.849C653.854 375.709 674.464 402.419 694.694 429.419C706.294 444.909 716.424 461.36 724.994 478.75C745.194 519.73 760.164 562.539 769.754 607.18C772.374 619.37 774.504 631.78 775.444 644.2C776.744 661.21 775.594 678.229 772.574 695.109C765.094 737.039 750.464 776.149 726.724 811.639L726.754 811.669Z" fill="black" stroke="black" stroke-width="0.5" stroke-miterlimit="10"/>
<path d="M505.464 274.68C507.734 280.35 511.084 285.44 515.794 289.45C519.074 292.25 522.864 294.56 527.154 292.27C531.034 290.21 530.914 286.04 531.554 281.99C529.974 275.79 528.904 269.4 526.724 263.41C517.924 239.22 509.184 215.02 501.764 190.35C500.464 186.03 498.624 181.81 496.574 177.78C492.374 169.52 486.254 162.94 478.524 157.74C474.124 154.78 470.004 155.09 465.804 157.69C460.004 161.28 457.784 166.82 458.714 173.27C459.354 177.7 460.634 182.22 462.594 186.23C465.404 191.99 468.644 197.65 472.484 202.76C481.924 215.32 488.884 228.99 493.794 243.91C497.214 254.32 501.394 264.49 505.474 274.67L505.464 274.68Z" fill="white"/>
<path d="M170.744 601.8C137.324 617.32 95.4837 645.32 84.6437 681.74C77.3937 706.07 78.0336 730.33 86.2636 743.53L55.0136 758.49C42.2836 738.07 32.0337 622.94 126.674 570.77C126.674 570.77 141.074 560.34 159.854 576.8C182.064 596.26 170.744 601.8 170.744 601.8Z" fill="black" stroke="black" stroke-width="0.5" stroke-miterlimit="10"/>
<path d="M162.004 602.19C124.264 618.76 91.8936 646.54 81.0536 682.95C73.8036 707.28 74.4438 731.54 82.6738 744.74L58.0536 756.589C45.3236 736.169 37.1337 626.7 127.404 574.31C127.404 574.31 142.254 564.57 160.074 581.77C166.514 587.99 168.824 592.989 169.174 596.149C169.574 599.759 164.304 601.17 161.994 602.18L162.004 602.19Z" fill="#282828"/>
<path d="M664.754 1014.57C657.274 1016.09 649.804 1017.9 642.234 1018.69C635.734 1019.37 629.104 1018.9 622.534 1018.79C621.654 1018.78 620.784 1017.91 619.184 1017.05C623.484 1014.06 628.224 1016.44 632.174 1014.06C633.614 1010.4 633.024 1006.56 632.234 1002.81C615.244 999.34 599.404 1010.03 597.364 1025.94C596.024 1036.39 601.544 1044.76 611.794 1047.23C615.294 1048.07 619.014 1048.18 622.644 1048.3C626.194 1048.42 629.764 1048.12 634.114 1047.98C629.514 1052.71 629.184 1052.76 611.614 1052.1C607.624 1060.59 607.754 1069.6 610.024 1078.49C611.354 1083.7 615.954 1086.62 620.744 1088.82C629.154 1092.68 638.184 1094.3 647.244 1095.25C678.504 1098.51 709.204 1095.42 739.214 1085.98C743.714 1084.56 748.124 1082.69 752.344 1080.57C757.114 1078.17 760.234 1074.18 761.474 1068.86C764.604 1055.47 762.634 1043.48 751.884 1033.91C743.644 1026.57 733.874 1022.97 722.944 1022.48C709.194 1021.87 696.134 1025.01 683.484 1030.17C680.784 1031.27 678.134 1032.52 675.394 1033.5C674.594 1033.78 673.554 1033.35 672.564 1033.24C672.824 1030.64 674.914 1030.2 676.304 1029.27C679.834 1026.9 681.874 1023.49 683.324 1019.72C686.254 1012.1 682.564 1003.63 674.844 1000.91C669.684 999.09 664.264 998.31 658.194 1000.67C657.944 1004.13 657.684 1007.6 657.384 1011.69C660.844 1011.81 663.624 1011.9 667.014 1012.02C666.014 1013.2 665.494 1014.43 664.754 1014.58V1014.57Z" fill="white"/>
<path d="M627.834 867.55C622.924 857.38 617.464 854.84 606.554 857.48C603.114 858.31 598.974 859.54 596.114 861.68C588.264 867.57 592.234 868.76 592.744 869.69C617.544 914.68 633.424 962.81 637.154 1013.66C642.374 1014.92 646.944 1014.67 651.964 1013.29C652.494 1011.18 653.234 1009.15 653.494 1007.06C655.464 991.38 654.804 975.66 653.314 960.01C651.094 936.65 645.954 913.84 638.134 891.72C635.224 883.48 631.634 875.43 627.834 867.55Z" fill="#282828"/>
<path d="M653.934 1099.43C640.184 1098.6 626.544 1096.28 613.714 1089.63C614.934 1097.34 615.944 1099.52 621.464 1101.57C627.224 1103.71 633.254 1105.74 639.314 1106.38C669.994 1109.6 700.464 1108.66 730.214 1099.49C736.444 1097.57 742.494 1094.98 748.474 1092.34C750.944 1091.25 753.644 1089.75 753.834 1085.74C752.264 1086.01 750.834 1086.02 749.574 1086.5C718.694 1098.24 686.604 1101.42 653.934 1099.44V1099.43Z" fill="#D1D1D1"/>
<path d="M298.864 1092.2C288.324 1092.16 277.784 1091.13 267.264 1090.19C256.954 1089.27 246.954 1086.02 235.424 1085.03C239.484 1089.96 244.134 1091.38 248.584 1092.56C256.304 1094.62 264.144 1096.5 272.054 1097.57C289.414 1099.91 306.814 1101.47 324.284 1097.92C332.124 1096.33 340.144 1095.66 348.034 1094.28C351.224 1093.72 354.434 1092.68 357.334 1091.25C359.064 1090.4 360.224 1088.38 362.934 1085.52C350.694 1086.19 340.804 1089.84 330.514 1090.46C319.964 1091.1 309.414 1092.23 298.864 1092.19V1092.2Z" fill="#D1D1D1"/>
<path d="M344.244 862.76C339.164 860.54 333.944 859.12 328.324 859.46C325.164 859.65 322.474 860.87 321.194 863.74C319.114 868.38 317.114 873.1 315.674 877.97C312.244 889.59 311.044 901.64 310.634 913.65C309.824 937.79 311.304 961.83 316.754 985.45C318.544 993.21 320.154 1001.14 324.804 1008.71C329.474 1009.26 333.374 1009.62 337.774 1007.98C337.804 1006.04 337.954 1004.31 337.844 1002.58C335.734 969.35 335.234 936.16 342.364 903.39C344.374 894.16 347.564 885.18 350.364 876.13C352.914 867.89 352.244 866.26 344.254 862.75L344.244 862.76Z" fill="#282828"/>
<path d="M312.064 1010.64C314.624 1009.87 316.584 1009.28 318.534 1008.69C319.534 1005.56 318.314 1003.41 315.444 1002.79C306.304 1000.81 291.224 1004.91 287.934 1018.67C286.684 1023.92 288.064 1028.05 292.424 1031.1C295.714 1033.4 299.214 1035.4 302.484 1037.72C304.074 1038.85 305.344 1040.44 306.004 1043.02C304.774 1042.64 303.414 1042.47 302.344 1041.83C297.644 1039.03 293.174 1035.81 288.334 1033.27C278.794 1028.25 268.694 1025.62 257.754 1026.82C237.754 1029.02 224.184 1046.08 226.864 1065.94C227.944 1073.95 231.814 1079.14 240.254 1081.07C268.564 1087.57 297.034 1091.08 326.024 1087.02C335.414 1085.71 344.934 1084.74 354.074 1082.38C367.984 1078.79 368.674 1078.11 368.374 1062.46C368.204 1053.64 365.974 1045.1 357.454 1039.42C349.884 1042.36 341.924 1042.24 331.724 1042.07C334.684 1040.31 335.814 1039.18 337.094 1038.95C341.034 1038.24 345.084 1038.09 349.014 1037.34C356.634 1035.89 362.264 1031.6 366.064 1024.82C368.324 1020.77 368.604 1016.5 367.854 1012.08C367.254 1008.59 365.234 1005.99 362.004 1004.67C356.124 1002.27 349.974 1001.66 343.744 1002.93C342.974 1003.09 341.914 1004.47 341.944 1005.26C341.994 1006.52 342.494 1008.35 343.404 1008.86C345.114 1009.82 347.254 1010.02 349.214 1010.54C334.274 1014.91 322.304 1014.48 312.074 1010.64H312.064Z" fill="white"/>
<path d="M721.614 1018.58C712.374 1018.1 703.424 1019.93 694.564 1022.32C692.544 1022.86 690.504 1023.33 687.694 1024.02C688.024 1020.81 688.434 1018.43 688.474 1016.04C688.684 1005 681.774 997.108 670.804 996.148C667.204 995.828 663.534 996.319 659.574 996.449C658.954 994.659 658.084 993.339 658.134 992.059C659.254 960.279 653.644 929.499 644.494 899.239C643.564 896.149 637.724 880.069 636.614 877.829C633.854 872.269 631.144 866.678 628.304 861.158C626.184 857.038 622.844 854.269 618.224 853.459C608.204 851.719 599.364 854.429 591.874 861.199C588.484 864.259 588.044 867.818 590.324 872.158C592.184 875.708 600.214 891.748 601.394 894.358C612.874 919.718 631.804 975.888 630.584 996.658C626.224 997.708 621.614 998.569 617.164 999.959C613.364 1001.16 609.514 1002.56 606.114 1004.59C595.484 1010.91 590.474 1024.18 593.944 1035.99C595.104 1039.94 597.184 1043.34 600.364 1046C602.294 1047.62 604.254 1049.2 606.314 1050.89C605.714 1055.04 604.914 1058.98 604.624 1062.95C603.884 1072.94 606.014 1082.58 608.794 1092.08C610.904 1099.29 615.674 1103.79 622.864 1106.17C630.564 1108.73 638.454 1110.33 646.474 1110.74C665.454 1111.71 684.424 1112.52 703.364 1109.37C717.114 1107.08 730.534 1103.82 743.654 1099.09C753.264 1095.63 759.804 1089.54 762.894 1079.68C765.204 1072.33 767.374 1065.04 767.124 1057.19C766.824 1047.54 763.174 1039.45 756.334 1032.78C746.694 1023.37 734.834 1019.25 721.624 1018.56L721.614 1018.58ZM592.414 867.628C591.644 865.998 594.864 863.438 596.804 862.128C599.764 860.118 603.114 858.319 606.554 857.479C617.474 854.839 622.934 857.379 627.834 867.549C631.634 875.429 635.214 883.479 638.134 891.719C645.954 913.839 651.094 936.649 653.314 960.009C654.804 975.659 655.464 991.369 653.494 1007.06C653.234 1009.15 652.494 1011.18 651.964 1013.29C646.934 1014.67 642.374 1014.92 637.154 1013.66C633.344 961.768 618.164 913.438 592.414 867.628ZM748.484 1092.33C742.504 1094.97 736.464 1097.56 730.224 1099.48C700.474 1108.65 670.004 1109.59 639.324 1106.37C633.264 1105.73 627.234 1103.7 621.474 1101.56C615.964 1099.51 614.954 1097.34 613.724 1089.62C626.554 1096.27 640.184 1098.59 653.944 1099.42C686.614 1101.39 718.704 1098.22 749.584 1086.48C750.844 1086 752.284 1085.99 753.844 1085.72C753.654 1089.74 750.954 1091.23 748.484 1092.32V1092.33ZM761.464 1068.85C760.224 1074.17 757.104 1078.16 752.334 1080.56C748.114 1082.69 743.714 1084.56 739.204 1085.97C709.204 1095.41 678.504 1098.5 647.234 1095.24C638.174 1094.3 629.154 1092.67 620.734 1088.81C615.944 1086.61 611.344 1083.69 610.014 1078.48C607.754 1069.6 607.614 1060.59 611.604 1052.09C629.174 1052.75 629.504 1052.7 634.104 1047.97C629.754 1048.11 626.194 1048.41 622.634 1048.29C619.004 1048.17 615.294 1048.07 611.794 1047.22C601.534 1044.75 596.024 1036.38 597.364 1025.93C599.404 1010.02 615.234 999.329 632.234 1002.8C633.024 1006.55 633.614 1010.39 632.174 1014.05C628.224 1016.43 623.484 1014.05 619.184 1017.04C620.784 1017.9 621.654 1018.77 622.534 1018.78C629.104 1018.89 635.734 1019.36 642.234 1018.68C649.804 1017.88 657.274 1016.08 664.754 1014.56C665.494 1014.41 666.014 1013.18 667.014 1012C663.614 1011.88 660.844 1011.79 657.384 1011.67C657.684 1007.57 657.944 1004.1 658.194 1000.65C664.254 998.288 669.684 999.068 674.844 1000.89C682.564 1003.61 686.254 1012.08 683.324 1019.7C681.874 1023.47 679.824 1026.88 676.304 1029.25C674.914 1030.18 672.824 1030.62 672.564 1033.22C673.544 1033.33 674.594 1033.76 675.394 1033.48C678.134 1032.5 680.784 1031.25 683.484 1030.15C696.134 1025 709.184 1021.85 722.944 1022.46C733.874 1022.95 743.644 1026.55 751.884 1033.89C762.634 1043.46 764.604 1055.45 761.474 1068.84L761.464 1068.85Z" fill="black" stroke="black" stroke-width="0.5" stroke-miterlimit="10"/>
<path d="M357.474 999.57C354.944 999.2 352.374 999.16 349.834 998.89C347.314 998.62 344.814 998.24 342.424 997.92C337.754 977.63 338.344 918.61 352.764 880.06C353.664 877.67 354.614 875.28 355.294 872.82C356.774 867.44 355.744 864.24 351.114 861.63C345.034 858.2 338.594 855.78 331.444 855.39C324.824 855.03 319.854 857.46 317.244 863.46C314.924 868.79 313.274 874.42 311.474 879.96C310.484 883 308.964 890.26 308.614 893.09C303.534 933.98 308.144 952.28 309.404 963.52C310.684 975 313.174 986.35 315.254 998.43C296.494 998.47 283.244 1004.98 282.674 1025.92C277.774 1024.91 273.904 1024.06 270.014 1023.33C261.904 1021.82 253.924 1022.6 246.304 1025.63C232.544 1031.1 224.754 1041.46 222.494 1056.01C221.104 1064.99 222.984 1073.38 227.054 1081.44C230.044 1087.37 235.004 1091.04 240.814 1093.42C246.544 1095.76 252.514 1097.64 258.534 1099.07C273.904 1102.72 289.664 1104.1 305.344 1103.74C321.764 1103.36 338.054 1100.59 354.044 1096.49C360.944 1094.72 365.544 1090.48 368.334 1084.03C374.694 1069.29 374.754 1055.04 365.174 1041.5C364.334 1040.31 363.494 1039.11 362.314 1037.44C364.014 1035.26 365.764 1033.02 367.504 1030.77C370.254 1027.22 371.964 1023.25 372.414 1018.76C373.494 1008.15 368.094 1001.15 357.484 999.58L357.474 999.57ZM310.634 913.66C311.044 901.64 312.244 889.6 315.674 877.98C317.114 873.11 319.114 868.39 321.194 863.75C322.474 860.88 325.164 859.66 328.324 859.47C333.944 859.13 339.174 860.55 344.244 862.77C352.244 866.27 352.904 867.91 350.354 876.15C347.554 885.2 344.364 894.18 342.354 903.41C335.224 936.18 335.724 969.37 337.834 1002.6C337.944 1004.32 337.794 1006.06 337.764 1008C333.364 1009.64 329.474 1009.29 324.794 1008.74C320.154 1001.17 318.534 993.24 316.744 985.48C311.304 961.86 309.814 937.82 310.624 913.68L310.634 913.66ZM357.334 1091.26C354.424 1092.68 351.224 1093.73 348.024 1094.29C340.134 1095.67 332.114 1096.34 324.274 1097.93C306.804 1101.48 289.404 1099.92 272.044 1097.58C264.134 1096.51 256.294 1094.63 248.574 1092.57C244.124 1091.38 239.474 1089.96 235.414 1085.04C246.954 1086.03 256.944 1089.28 267.254 1090.2C277.764 1091.14 288.314 1092.17 298.854 1092.21C309.404 1092.25 319.954 1091.12 330.504 1090.48C340.794 1089.86 350.674 1086.21 362.924 1085.54C360.214 1088.4 359.054 1090.42 357.324 1091.27L357.334 1091.26ZM366.054 1024.83C362.264 1031.62 356.624 1035.9 349.004 1037.35C345.074 1038.1 341.034 1038.26 337.084 1038.96C335.794 1039.19 334.674 1040.31 331.714 1042.08C341.904 1042.25 349.874 1042.37 357.444 1039.43C365.964 1045.11 368.194 1053.65 368.364 1062.47C368.664 1078.12 367.974 1078.8 354.064 1082.39C344.924 1084.75 335.404 1085.71 326.014 1087.03C297.014 1091.09 268.544 1087.58 240.234 1081.08C231.804 1079.14 227.924 1073.95 226.854 1065.95C224.184 1046.09 237.744 1029.03 257.744 1026.83C268.694 1025.62 278.794 1028.26 288.324 1033.28C293.154 1035.82 297.624 1039.04 302.324 1041.84C303.404 1042.48 304.754 1042.64 305.984 1043.03C305.324 1040.46 304.054 1038.87 302.464 1037.73C299.194 1035.4 295.694 1033.4 292.404 1031.11C288.044 1028.06 286.664 1023.94 287.914 1018.68C291.204 1004.91 306.284 1000.82 315.424 1002.8C318.294 1003.42 319.504 1005.57 318.514 1008.7C316.564 1009.29 314.614 1009.88 312.044 1010.65C322.274 1014.49 334.244 1014.92 349.184 1010.55C347.224 1010.03 345.084 1009.84 343.374 1008.87C342.464 1008.35 341.954 1006.53 341.914 1005.27C341.884 1004.49 342.944 1003.1 343.714 1002.94C349.944 1001.67 356.094 1002.28 361.974 1004.68C365.204 1006 367.224 1008.6 367.824 1012.09C368.584 1016.51 368.304 1020.79 366.034 1024.83H366.054Z" fill="black" stroke="black" stroke-width="0.5" stroke-miterlimit="10"/>
<path d="M542.694 644.971C548.714 647.351 553.484 649.221 558.254 651.121C563.564 653.241 569.174 653.951 574.484 652.151C580.034 650.271 584.564 651.951 589.204 654.311C596.284 657.911 601.494 663.541 606.104 669.851C610.654 676.091 615.144 682.381 619.954 688.421C625.834 695.801 633.604 700.511 642.454 703.741C658.264 709.521 674.114 709.521 690.134 704.851C693.074 703.991 695.924 702.291 700.094 702.941C698.664 705.651 697.834 707.671 696.634 709.441C693.134 714.621 689.494 719.721 685.904 724.841C673.714 742.231 657.254 754.301 637.964 762.601C628.474 766.681 618.484 769.291 608.094 769.981C587.964 771.331 568.524 768.231 549.614 761.151C529.584 753.661 513.964 740.861 502.444 722.951C495.394 711.991 493.474 696.241 497.644 682.481C521.464 681.391 538.164 670.991 542.674 644.961L542.694 644.971Z" fill="#96745A"/>
<path d="M426.654 649.83C432.014 651.88 437.514 650.86 442.354 647.38C443.464 646.58 444.744 646 445.954 645.32C460.424 672.77 464.484 676.13 491.634 682.5C491.734 688.43 491.614 693.9 491.974 699.34C492.394 705.55 490.294 710.79 486.944 715.82C478.624 728.3 467.814 738.01 454.844 745.44C433.354 757.76 410.014 763.51 385.474 764.87C375.154 765.44 364.934 764.33 354.894 761.76C332.384 756 314.314 743.32 299.244 726C291.714 717.35 286.204 707.36 280.704 697.38C280.084 696.26 278.704 695.03 280.694 693.33C284.934 694.77 289.374 696.28 293.814 697.78C308.554 702.73 323.444 702.83 338.284 698.53C348.594 695.54 358.144 690.76 366.494 683.94C373.324 678.36 379.954 672.55 386.584 666.75C394.414 659.91 403.094 654.51 412.824 650.84C417.314 649.15 421.604 647.91 426.644 649.84L426.654 649.83Z" fill="#96745A"/>
<path d="M671.344 396.23C671.024 396.06 670.654 395.93 670.374 395.71C669.224 394.8 668.054 393.9 666.964 392.93C650.824 378.43 631.864 370.31 610.314 368.5C603.784 367.95 596.894 367.55 590.594 368.97C567.754 374.12 548.224 385.25 533.004 403.38C531.884 404.71 530.574 405.89 529.274 407.21C527.904 406.31 526.814 405.9 526.164 405.12C516.564 393.5 506.994 381.87 497.524 370.16C495.694 367.89 494.174 365.32 492.804 362.73C492.044 361.29 491.894 359.53 491.234 356.98C495.774 357.68 499.324 358.35 502.904 358.75C514.664 360.05 520.474 356.27 520.194 343.72C520.104 339.81 519.914 335.73 521.804 332.48C522.764 332.13 523.164 331.83 523.404 331.92C527.784 333.75 532.144 335.63 536.514 337.49C547.584 342.18 551.624 340.29 555.054 328.69C556.064 325.29 556.384 321.62 559.284 318.43C561.514 319.58 563.464 320.49 565.314 321.56C569.444 323.96 573.414 326.65 577.644 328.84C584.134 332.2 587.374 331.68 592.434 326.66C595.034 324.08 597.264 321.13 599.784 318.45C602.524 315.54 604.874 312.08 609.344 311.09C614.144 312.9 615.914 317.61 618.644 321.41C621.634 325.58 624.344 329.98 627.594 333.93C630.194 337.09 633.864 337.78 637.554 335.71C640.744 333.92 643.784 331.83 646.824 329.79C650.454 327.35 653.944 324.63 659.064 324.14C662.884 327.56 663.264 331.71 664.414 335.55C665.564 339.41 666.584 343.36 668.214 347.03C670.474 352.11 674.364 355.1 680.324 354.84C683.994 354.68 687.694 354.65 691.344 354.98C693.384 355.16 695.344 356.19 697.344 356.84C694.024 366.72 679.134 389.12 671.344 396.25V396.23Z" fill="#96745A"/>
<path d="M447.324 589.07C447.204 581.72 446.884 574.359 446.944 567.009C447.084 551.569 447.524 536.129 447.664 520.689C447.794 507.449 447.704 494.209 447.684 480.969C447.684 475.849 447.704 470.739 449.924 465.649C465.864 459.629 481.934 458.59 499.014 463.83C514.014 506.36 524.264 550.349 537.064 594.729C541.054 594.449 544.324 594.069 547.594 594.009C563.774 593.709 577.694 602.859 584.214 617.699C586.534 622.979 586.934 628.389 586.094 633.899C584.894 641.769 578.244 647.88 570.224 648.31C567.004 648.48 563.564 648.009 560.514 646.979C555.654 645.359 551.074 642.93 546.304 641.04C544.394 640.28 542.284 640.009 540.754 639.639C539.834 640.469 539.414 640.659 539.344 640.949C538.794 643.059 538.164 645.17 537.824 647.32C535.634 661.47 527.364 670.3 514.104 675.05C505.494 678.14 496.604 678.179 487.954 676.679C474.054 674.269 462.074 668.129 455.294 654.839C453.474 651.279 452.504 647.29 450.984 643.57C450.344 642 449.284 640.589 448.154 638.649C445.804 640.059 443.764 640.91 442.164 642.29C435.504 648.04 428.594 646.959 421.704 643.089C419.184 641.669 416.934 639.639 414.824 637.619C403.794 627.039 405.124 612.03 417.864 603.83C423.834 599.99 430.404 597.859 437.564 597.389C440.724 597.179 444.204 598.149 447.324 595.429C447.324 593.419 447.354 591.24 447.324 589.06V589.07Z" fill="#FFE4CC"/>
<path d="M459.534 421.621C461.874 419.601 464.594 418.791 467.664 418.791C476.284 418.811 482.584 423.891 483.354 431.421C473.614 432.521 463.884 433.621 454.014 434.731C454.994 427.201 456.194 424.491 459.534 421.621Z" fill="#FFE4CC"/>
<path d="M252.444 466.531C252.384 469.091 252.604 471.661 252.594 474.221C252.574 476.921 253.434 479.811 251.864 482.461C241.264 477.151 238.614 472.171 240.694 462.321C242.614 453.201 245.304 450.601 253.704 450.281C253.454 452.821 253.164 455.281 252.974 457.751C252.744 460.671 252.514 463.601 252.444 466.531Z" fill="#595959"/>
<path d="M705.254 451.27C707.364 455.68 708.164 460.42 707.524 465.23C706.624 472.02 702.964 476.51 695.764 478.07C696.284 466.53 696.794 455.45 697.324 443.68C701.544 445.16 703.674 447.98 705.254 451.27Z" fill="#595959"/>
<path d="M257.484 454.371C254.214 474.461 257.254 493.961 266.844 512.161C288.714 553.621 331.644 561.501 360.254 554.361C398.264 544.881 420.084 519.071 429.304 481.771C430.184 478.221 430.584 474.561 431.164 471.181C454.454 454.271 489.364 452.351 516.014 464.061C516.484 466.181 517.234 468.621 517.554 471.111C520.964 497.481 534.454 516.951 557.784 529.511C575.284 538.931 593.814 543.761 613.964 542.361C666.254 538.721 695.684 488.731 692.924 453.351C691.084 429.811 680.794 411.181 664.054 395.771C644.934 378.171 621.604 371.451 595.974 372.351C590.914 372.531 585.704 373.721 580.914 375.421C551.164 385.971 529.674 405.071 519.524 435.661C519.064 437.051 518.474 438.391 517.514 440.851C487.374 433.051 458.594 434.441 430.484 448.071C429.174 445.651 427.924 443.901 427.214 441.951C423.004 430.341 416.094 420.381 408.094 411.201C394.894 396.061 377.434 388.701 358.094 385.531C331.174 381.111 306.994 388.231 285.604 404.671C269.334 417.171 260.704 434.601 257.484 454.391V454.371ZM545.594 431.511C560.904 398.141 609.434 378.561 647.484 410.371C662.844 423.221 670.964 440.571 669.864 461.001C667.794 499.281 633.624 522.161 605.474 521.171C582.514 520.041 563.844 510.481 549.664 492.331C547.874 490.031 546.424 487.411 545.154 484.781C536.544 466.971 537.544 449.091 545.604 431.521L545.594 431.511ZM278.454 471.211C278.124 430.891 311.714 402.991 349.234 407.611C357.724 408.661 365.644 411.631 373.304 415.301C399.284 427.751 415.564 457.681 404.634 490.681C395.054 519.611 366.274 540.471 331.854 534.931C300.784 529.921 278.514 502.941 278.454 471.221V471.211Z" fill="#595959"/>
<path d="M282.004 470.131C281.814 509.331 312.274 532.671 342.064 531.541C378.634 532.911 404.434 503.201 404.054 470.641C403.614 432.411 375.474 411.542 341.814 411.062C310.114 410.612 282.194 432.461 282.004 470.131ZM325.684 430.271C332.814 436.151 361.764 468.761 369.804 479.911C370.574 480.981 372.034 482.031 370.624 483.921C369.814 483.471 368.764 483.201 368.174 482.521C353.984 466.171 339.824 449.782 325.744 433.332C325.294 432.802 325.684 431.561 325.684 430.261V430.271ZM308.844 459.701C314.654 465.541 320.474 469.431 322.504 476.661C315.077 470.608 310.524 464.955 308.844 459.701Z" fill="#D9F3FC"/>
<path d="M249.484 367.051C260.014 369.591 262.924 363.921 261.694 356.111C260.964 351.491 259.714 346.681 262.104 341.611C263.834 341.881 265.734 341.801 267.294 342.491C270.654 343.971 273.824 345.871 277.094 347.541C280.034 349.051 282.904 350.811 286.004 351.901C291.554 353.851 295.304 351.941 297.194 346.341C298.134 343.571 298.484 340.611 299.224 337.771C300.024 334.691 300.984 331.641 301.984 328.171C306.864 329.531 309.484 332.651 312.464 335.301C316.304 338.721 320.004 342.371 324.164 345.351C329.714 349.321 334.114 348.741 338.834 343.641C341.304 340.971 343.144 337.711 345.284 334.721C347.364 331.821 348.594 328.201 353.074 325.641C354.884 329.041 356.294 331.601 357.624 334.201C359.624 338.131 361.274 342.271 363.614 345.991C366.994 351.371 371.524 352.151 376.744 348.441C379.724 346.321 382.294 343.631 385.144 341.301C387.924 339.021 390.314 336.011 394.194 335.741C397.514 337.281 397.944 340.211 398.454 343.131C399.484 348.921 400.164 354.811 401.734 360.461C403.634 367.291 408.404 368.621 413.544 366.741C417.334 365.361 421.234 364.121 425.184 363.391C427.004 363.051 429.064 364.071 431.654 364.601C428.614 377.011 422.684 387.121 416.394 397.021C414.314 400.301 412.764 404.251 408.714 405.781C376.614 376.481 319.004 366.651 273.474 409.701C259.234 398.171 242.684 377.401 238.864 366.111C242.604 364.391 246.004 366.211 249.474 367.051H249.484Z" fill="#96745A"/>
<path d="M545.484 442.261C537.644 470.261 551.424 497.011 572.014 507.391C575.954 509.381 579.784 511.611 583.854 513.291C603.504 521.431 622.174 518.841 639.364 506.901C650.394 499.241 659.354 489.491 663.484 476.221C674.374 441.291 650.974 399.321 605.964 398.221C574.904 398.421 552.394 417.541 545.484 442.241V442.261ZM589.854 417.571C596.234 420.871 625.694 449.491 634.864 460.621C635.654 461.581 637.344 462.591 635.804 464.271C626.974 458.321 596.504 427.851 589.854 417.571ZM574.424 450.731C574.604 450.451 574.964 450.291 575.254 450.081C584.144 456.001 588.904 460.681 593.304 469.111C587.244 465.041 582.014 460.161 577.044 454.991C576.054 453.961 575.254 452.751 574.424 451.591C574.284 451.391 574.294 450.941 574.424 450.731Z" fill="#D9F3FC"/>
<path d="M233.964 366.11C235.174 369.53 236.684 372.941 238.624 376.001C245.954 387.551 255.124 397.64 264.414 407.62C266.384 409.74 268.294 411.911 269.944 413.741C264.794 424.121 259.924 433.931 254.904 444.051C241.234 447.801 237.124 452.501 236.494 465.541C235.894 477.891 239.804 483.111 253.734 488.731C256.364 495.691 258.564 502.73 261.634 509.37C274.854 537.96 297.304 555.081 328.334 559.481C356.424 563.461 381.614 555.681 402.704 536.231C419.774 520.491 430.634 501.32 434.144 478.18C435.124 471.7 435.294 471.731 443.954 469.251C445.104 479.511 443.874 489.651 444.124 499.741C444.384 510.041 444.294 520.36 444.144 530.67C443.994 540.96 443.474 551.251 443.334 561.541C443.184 571.761 443.304 581.981 443.304 592.511C438.824 593.251 434.464 593.671 430.274 594.741C426.034 595.831 421.704 597.08 417.844 599.09C402.154 607.24 398.624 624.34 409.554 638.14C411.364 640.42 413.414 642.51 415.774 645.17C413.084 646.47 410.924 647.68 408.644 648.59C398.964 652.47 390.434 658.141 382.674 665.061C376.624 670.451 370.594 675.88 364.244 680.89C347.254 694.28 328.004 700.29 306.414 696.93C299.934 695.92 293.634 693.62 287.324 691.66C283.524 690.48 279.994 688.401 275.094 688.221C274.944 690.311 274.204 692.26 274.804 693.61C291.654 731.45 318.614 757.751 360.084 766.771C373.494 769.691 387.254 769.001 400.784 767.221C419.144 764.811 436.694 759.62 453.174 750.85C467.734 743.1 480.264 733.18 489.524 719.39C490.334 718.18 491.284 717.051 492.594 715.311C494.034 717.271 495.394 718.84 496.444 720.59C509.814 743.02 528.704 758.49 553.734 766.39C568.194 770.95 582.844 774.151 598.104 774.241C628.364 774.421 654.044 763.24 676.014 742.94C687.224 732.581 695.204 719.72 703.174 706.9C704.134 705.36 704.784 703.59 705.324 701.84C706.144 699.22 703.744 696.55 700.954 697.14C698.094 697.75 695.284 698.65 692.534 699.66C681.624 703.68 670.384 705.081 658.874 703.721C643.264 701.881 629.834 695.84 620.224 682.85C616.944 678.41 613.654 673.97 610.544 669.41C604.614 660.72 597.384 653.581 587.514 649.451C586.524 649.04 585.684 648.28 584.304 647.37C585.204 645.78 586.004 644.261 586.894 642.791C591.844 634.571 591.684 626.011 588.554 617.301C582.724 601.021 568.234 590.36 550.894 589.61C547.264 589.45 543.624 589.59 539.644 589.59C528.024 548.35 516.484 507.38 504.874 466.15C507.434 463.35 509.754 465.971 512.514 466.731C512.934 469.221 513.314 471.351 513.654 473.501C517.624 498.771 530.994 517.76 552.654 530.89C567.974 540.18 584.684 546.031 602.694 546.581C638.724 547.681 665.604 531.6 684.364 501.35C687.644 496.06 690.084 490.241 693.364 483.781C695.184 483.001 697.874 481.93 700.484 480.69C709.084 476.61 712.564 470.811 711.994 461.331C711.434 451.931 707.774 444.181 699.234 439.501C696.544 438.031 694.254 436.631 693.244 433.531C689.434 421.841 683.094 411.531 675.674 401.821C675.264 401.281 675.194 400.481 674.954 399.771C681.564 390.061 688.234 380.36 694.784 370.59C696.834 367.54 698.884 364.421 700.324 361.061C701.244 358.901 701.054 356.271 701.374 353.731C695.274 350.791 689.494 350.581 683.574 350.711C675.014 350.891 672.824 349.291 669.994 340.951C668.344 336.081 667.314 330.99 665.524 326.18C663.364 320.4 659.864 318.781 654.194 321.311C649.884 323.241 645.944 326.06 641.964 328.69C633.384 334.36 632.054 334.181 626.134 325.581C623.004 321.031 620.264 316.201 616.934 311.821C612.564 306.081 608.274 305.58 602.874 310.16C599.814 312.76 597.314 316.021 594.544 318.961C592.534 321.101 590.564 323.291 588.444 325.321C587.684 326.051 586.544 326.4 585.184 327.13C574.894 325.33 567.884 315.381 557.814 313.791C552.974 317.511 553.124 322.3 552.004 326.42C549.154 336.96 547.044 337.76 537.374 333.38C533.024 331.41 528.744 329.25 524.284 327.59C520.844 326.31 518.304 327.85 517.784 331.37C517.034 336.46 516.694 341.601 516.124 346.721C515.384 353.381 513.754 354.901 506.884 354.701C503.594 354.601 500.324 353.911 497.044 353.481C495.224 353.241 493.414 352.831 491.584 352.761C488.314 352.641 486.034 355.35 486.944 358.63C487.714 361.43 488.724 364.311 490.314 366.701C493.764 371.901 497.474 376.961 501.394 381.821C509.254 391.551 517.324 401.111 525.304 410.751C525.524 411.011 525.574 411.41 525.854 412.12C522.214 419.74 518.454 427.62 514.484 435.92C510.514 435.28 506.594 434.641 502.654 434.031C498.684 433.421 494.704 432.851 490.854 432.281C488.804 429.071 487.084 426.261 485.264 423.531C482.254 419.021 477.924 416.42 472.724 415.13C464.234 413.02 457.374 415.761 453.174 423.511C450.924 427.681 449.374 432.23 447.194 437.37C442.674 439.01 437.614 440.841 432.884 442.561C426.194 431.281 419.864 420.59 412.954 408.92C413.664 407.77 414.874 405.611 416.254 403.571C422.264 394.731 427.854 385.64 431.834 375.68C433.054 372.62 434.194 369.471 434.844 366.251C435.634 362.301 432.724 359.061 428.574 359.041C426.404 359.041 424.174 359.37 422.064 359.91C419.214 360.63 416.494 361.81 413.654 362.59C408.374 364.06 406.384 362.901 404.914 357.321C404.074 354.131 403.584 350.841 402.994 347.581C402.534 345.051 402.364 342.451 401.704 339.971C399.284 330.901 394.724 329.2 387.394 334.69C384.164 337.11 381.214 339.91 378.204 342.63C375.994 344.62 373.834 346.591 370.384 346.521C366.024 344.581 364.874 340.081 362.874 336.231C360.844 332.321 359.184 328.191 356.864 324.461C354.394 320.491 350.904 320.521 347.984 324.311C345.974 326.931 344.324 329.821 342.454 332.551C340.584 335.281 338.844 338.14 336.704 340.64C333.534 344.33 330.004 344.801 326.014 341.731C321.654 338.371 317.624 334.571 313.564 330.831C310.304 327.831 307.164 324.7 302.484 324.14C298.474 325.72 297.344 329.15 296.584 332.85C295.774 336.82 295.044 340.801 294.044 344.721C293.304 347.651 290.944 349.11 288.184 348.14C285.094 347.06 282.174 345.471 279.194 344.071C274.544 341.871 270.014 339.361 265.234 337.521C261.324 336.011 257.664 338.361 257.204 342.561C256.804 346.181 257.084 349.891 257.224 353.551C257.334 356.391 257.694 359.221 257.914 361.731C254.694 364.421 251.794 363.211 248.974 362.761C245.364 362.181 241.784 361.301 238.154 360.991C235.384 360.761 233.024 363.571 233.914 366.081L233.964 366.11ZM695.764 478.081C696.284 466.541 696.794 455.46 697.324 443.69C701.544 445.17 703.674 447.991 705.254 451.281C707.364 455.691 708.164 460.431 707.524 465.241C706.624 472.031 702.964 476.521 695.764 478.081ZM253.694 450.281C253.444 452.821 253.154 455.281 252.964 457.751C252.734 460.671 252.504 463.601 252.434 466.531C252.374 469.091 252.594 471.661 252.584 474.221C252.564 476.921 253.424 479.811 251.854 482.461C241.254 477.151 238.604 472.171 240.684 462.321C242.604 453.201 245.294 450.601 253.694 450.281ZM483.354 431.43C473.614 432.53 463.884 433.631 454.014 434.741C454.994 427.211 456.194 424.5 459.534 421.63C461.874 419.61 464.594 418.801 467.664 418.801C476.284 418.821 482.584 423.9 483.354 431.43ZM671.344 396.231C671.024 396.061 670.654 395.931 670.374 395.711C669.224 394.801 668.054 393.9 666.964 392.93C650.824 378.43 631.864 370.311 610.314 368.501C603.784 367.951 596.894 367.551 590.594 368.971C567.754 374.121 548.224 385.25 533.004 403.38C531.884 404.71 530.574 405.891 529.274 407.211C527.904 406.311 526.814 405.9 526.164 405.12C516.564 393.5 506.994 381.87 497.524 370.16C495.694 367.89 494.174 365.321 492.804 362.731C492.044 361.291 491.894 359.531 491.234 356.981C495.774 357.681 499.324 358.351 502.904 358.751C514.664 360.051 520.474 356.271 520.194 343.721C520.104 339.811 519.914 335.731 521.804 332.481C522.764 332.131 523.164 331.83 523.404 331.92C527.784 333.75 532.144 335.631 536.514 337.491C547.584 342.181 551.624 340.29 555.054 328.69C556.064 325.29 556.384 321.62 559.284 318.43C561.514 319.58 563.464 320.491 565.314 321.561C569.444 323.961 573.414 326.65 577.644 328.84C584.134 332.2 587.374 331.68 592.434 326.66C595.034 324.08 597.264 321.131 599.784 318.451C602.524 315.541 604.874 312.08 609.344 311.09C614.144 312.9 615.914 317.61 618.644 321.41C621.634 325.58 624.344 329.98 627.594 333.93C630.194 337.09 633.864 337.781 637.554 335.711C640.744 333.921 643.784 331.831 646.824 329.791C650.454 327.351 653.944 324.63 659.064 324.14C662.884 327.56 663.264 331.711 664.414 335.551C665.564 339.411 666.584 343.361 668.214 347.031C670.474 352.111 674.364 355.1 680.324 354.84C683.994 354.68 687.694 354.651 691.344 354.981C693.384 355.161 695.344 356.19 697.344 356.84C694.024 366.72 679.134 389.121 671.344 396.251V396.231ZM497.664 682.491C521.484 681.401 538.184 671.001 542.694 644.971C548.714 647.351 553.484 649.22 558.254 651.12C563.564 653.24 569.174 653.95 574.484 652.15C580.034 650.27 584.564 651.951 589.204 654.311C596.284 657.911 601.494 663.54 606.104 669.85C610.654 676.09 615.144 682.38 619.954 688.42C625.834 695.8 633.604 700.511 642.454 703.741C658.264 709.521 674.114 709.52 690.134 704.85C693.074 703.99 695.924 702.29 700.094 702.94C698.664 705.65 697.834 707.671 696.634 709.44C693.134 714.62 689.494 719.72 685.904 724.84C673.714 742.23 657.254 754.3 637.964 762.6C628.474 766.68 618.484 769.291 608.094 769.981C587.964 771.331 568.524 768.23 549.614 761.15C529.584 753.66 513.964 740.861 502.444 722.951C495.394 711.991 493.474 696.241 497.644 682.481L497.664 682.491ZM426.654 649.831C432.014 651.881 437.514 650.86 442.354 647.38C443.464 646.58 444.744 646.001 445.954 645.321C460.424 672.771 464.484 676.131 491.634 682.501C491.734 688.431 491.614 693.9 491.974 699.34C492.394 705.55 490.294 710.791 486.944 715.821C478.624 728.301 467.814 738.01 454.844 745.44C433.354 757.76 410.014 763.51 385.474 764.87C375.154 765.44 364.934 764.331 354.894 761.761C332.384 756.001 314.314 743.321 299.244 726.001C291.714 717.351 286.204 707.36 280.704 697.38C280.084 696.26 278.704 695.031 280.694 693.331C284.934 694.771 289.374 696.281 293.814 697.781C308.554 702.731 323.444 702.831 338.284 698.531C348.594 695.541 358.144 690.76 366.494 683.94C373.324 678.361 379.954 672.551 386.584 666.751C394.414 659.911 403.094 654.51 412.824 650.84C417.314 649.15 421.604 647.91 426.644 649.84L426.654 649.831ZM447.334 595.451C447.334 593.44 447.364 591.261 447.334 589.081C447.214 581.731 446.894 574.371 446.954 567.021C447.094 551.581 447.534 536.141 447.674 520.701C447.804 507.46 447.714 494.221 447.694 480.981C447.694 475.861 447.714 470.75 449.934 465.66C465.874 459.64 481.944 458.6 499.024 463.84C514.024 506.37 524.274 550.361 537.074 594.741C541.064 594.461 544.334 594.081 547.604 594.021C563.784 593.721 577.704 602.871 584.224 617.711C586.544 622.991 586.944 628.4 586.104 633.91C584.904 641.78 578.254 647.891 570.234 648.321C567.014 648.491 563.574 648.021 560.524 646.991C555.664 645.371 551.084 642.941 546.314 641.051C544.404 640.291 542.294 640.02 540.764 639.65C539.844 640.48 539.424 640.671 539.354 640.961C538.804 643.07 538.174 645.181 537.834 647.331C535.644 661.481 527.374 670.311 514.114 675.061C505.504 678.151 496.614 678.19 487.964 676.69C474.064 674.28 462.084 668.14 455.304 654.85C453.484 651.29 452.514 647.301 450.994 643.581C450.354 642.011 449.294 640.6 448.164 638.66C445.814 640.07 443.774 640.921 442.174 642.301C435.514 648.051 428.604 646.97 421.714 643.1C419.194 641.68 416.944 639.65 414.834 637.63C403.804 627.05 405.134 612.04 417.874 603.84C423.844 600 430.414 597.87 437.574 597.4C440.734 597.19 444.214 598.16 447.334 595.44V595.451ZM285.614 404.65C307.004 388.22 331.184 381.091 358.104 385.511C377.434 388.681 394.904 396.04 408.104 411.18C416.104 420.36 423.014 430.32 427.224 441.93C427.934 443.88 429.184 445.631 430.494 448.051C458.594 434.421 487.384 433.031 517.524 440.831C518.484 438.371 519.074 437.03 519.534 435.64C529.684 405.05 551.174 385.95 580.924 375.4C585.714 373.7 590.924 372.511 595.984 372.331C621.604 371.431 644.934 378.151 664.064 395.751C680.814 411.161 691.094 429.791 692.934 453.331C695.704 488.711 666.274 538.7 613.974 542.34C593.834 543.74 575.294 538.911 557.794 529.491C534.464 516.921 520.964 497.46 517.564 471.09C517.244 468.6 516.494 466.171 516.024 464.041C489.374 452.341 454.474 454.25 431.174 471.16C430.594 474.54 430.194 478.201 429.314 481.751C420.094 519.041 398.274 544.86 360.264 554.34C331.654 561.48 288.724 553.6 266.854 512.14C257.254 493.95 254.214 474.44 257.494 454.35C260.724 434.57 269.344 417.14 285.614 404.63V404.65ZM238.874 366.11C242.614 364.39 246.014 366.211 249.484 367.051C260.014 369.591 262.924 363.92 261.694 356.11C260.964 351.49 259.714 346.68 262.104 341.61C263.834 341.88 265.734 341.801 267.294 342.491C270.654 343.971 273.824 345.871 277.094 347.541C280.034 349.051 282.904 350.81 286.004 351.9C291.554 353.85 295.304 351.94 297.194 346.34C298.134 343.57 298.484 340.611 299.224 337.771C300.024 334.691 300.984 331.64 301.984 328.17C306.864 329.53 309.484 332.651 312.464 335.301C316.304 338.721 320.004 342.37 324.164 345.35C329.714 349.32 334.114 348.74 338.834 343.64C341.304 340.97 343.144 337.711 345.284 334.721C347.364 331.821 348.594 328.2 353.074 325.64C354.884 329.04 356.294 331.601 357.624 334.201C359.624 338.131 361.274 342.271 363.614 345.991C366.994 351.371 371.524 352.15 376.744 348.44C379.724 346.32 382.294 343.631 385.144 341.301C387.924 339.021 390.314 336.011 394.194 335.741C397.514 337.281 397.944 340.21 398.454 343.13C399.484 348.92 400.164 354.811 401.734 360.461C403.634 367.291 408.404 368.621 413.544 366.741C417.334 365.361 421.234 364.12 425.184 363.39C427.004 363.05 429.064 364.07 431.654 364.6C428.614 377.01 422.684 387.121 416.394 397.021C414.314 400.301 412.764 404.251 408.714 405.781C376.614 376.481 319.004 366.651 273.474 409.701C259.234 398.171 242.684 377.4 238.864 366.11H238.874Z" fill="black" stroke="black" stroke-width="0.5" stroke-miterlimit="10"/>
<path d="M278.454 471.211C278.504 502.941 300.774 529.921 331.854 534.921C366.274 540.461 395.054 519.601 404.634 490.671C415.564 457.671 399.284 427.751 373.304 415.291C365.644 411.621 357.724 408.641 349.234 407.601C311.714 402.981 278.124 430.881 278.454 471.201V471.211ZM282.004 470.131C282.194 432.461 310.114 410.611 341.814 411.061C375.484 411.541 403.614 432.411 404.054 470.641C404.434 503.201 378.634 532.911 342.064 531.541C312.274 532.681 281.814 509.331 282.004 470.131Z" fill="black" stroke="black" stroke-width="0.5" stroke-miterlimit="10"/>
<path d="M545.594 431.511C537.534 449.081 536.534 466.961 545.144 484.771C546.414 487.401 547.864 490.031 549.654 492.321C563.844 510.471 582.504 520.031 605.464 521.161C633.614 522.151 667.784 499.271 669.854 460.991C670.964 440.561 662.844 423.211 647.474 410.361C609.434 378.551 560.894 398.131 545.584 431.501L545.594 431.511ZM545.484 442.261C552.394 417.561 574.894 398.441 605.964 398.241C650.974 399.331 674.374 441.311 663.484 476.241C659.354 489.511 650.394 499.261 639.364 506.921C622.174 518.861 603.504 521.441 583.854 513.311C579.794 511.631 575.954 509.391 572.014 507.411C551.424 497.021 537.654 470.271 545.484 442.281V442.261Z" fill="black" stroke="black" stroke-width="0.5" stroke-miterlimit="10"/>
<path d="M369.804 479.91C370.574 480.98 372.034 482.03 370.624 483.92C369.814 483.47 368.764 483.2 368.174 482.52C353.984 466.17 339.824 449.78 325.744 433.33C325.294 432.8 325.684 431.56 325.684 430.26C332.814 436.14 361.764 468.75 369.804 479.9V479.91Z" fill="black" stroke="black" stroke-width="0.5" stroke-miterlimit="10"/>
<path d="M322.504 476.661C315.077 470.608 310.524 464.955 308.844 459.701C314.654 465.541 320.474 469.431 322.504 476.661Z" fill="black" stroke="black" stroke-width="0.5" stroke-miterlimit="10"/>
<path d="M634.874 460.62C635.664 461.58 637.354 462.59 635.814 464.27C626.984 458.32 596.514 427.85 589.864 417.57C596.244 420.87 625.704 449.49 634.874 460.62Z" fill="black" stroke="black" stroke-width="0.5" stroke-miterlimit="10"/>
<path d="M575.254 450.07C584.144 455.99 588.904 460.67 593.304 469.1C587.244 465.03 582.014 460.15 577.044 454.98C576.054 453.95 575.254 452.74 574.424 451.58C574.284 451.38 574.294 450.93 574.424 450.72C574.604 450.44 574.964 450.28 575.254 450.07Z" fill="black" stroke="black" stroke-width="0.5" stroke-miterlimit="10"/>
<path d="M829.774 709.79C826.624 707.99 824.174 711.03 820.764 711.07C820.064 710.6 818.664 710.08 817.924 709.09C815.004 705.18 815.384 701.84 819.414 699.79C822.694 698.12 826.354 696.55 829.964 696.26C846.284 694.94 862.664 694.28 878.844 697.55C882.394 698.27 886.024 699.91 888.954 702.04C894.744 706.25 893.664 712.91 887.004 715.53C883.954 716.73 880.734 717.48 876.744 718.69C878.354 720.29 879.124 721.49 880.214 722.06C897.174 730.95 905.054 745.79 907.404 764.02C909.284 778.62 909.414 793.27 905.944 807.71C904.024 815.69 901.294 823.43 896.304 830.08C892.364 835.33 887.534 838.56 880.244 835.83C886.034 818.11 889.664 800.35 887.054 781.27C884.134 784.41 885.174 787.63 885.074 790.58C884.484 807.05 881.874 823.1 875.374 838.36C872.164 845.89 868.794 853.34 863.794 859.91C860.854 863.78 857.424 867.06 852.604 868.43C848.194 869.68 844.574 868.73 842.164 863.98C850.764 849.46 854.564 833.31 857.204 816.75C859.224 804.11 857.724 791.62 856.364 779.1C856.274 778.29 855.274 777.58 854.384 776.4C852.824 779.76 853.694 782.65 854.034 785.54C856.494 806.59 853.584 827.02 846.504 846.87C844.804 851.63 842.344 856.21 839.584 860.45C836.154 865.72 831.114 869.33 824.974 871.02C819.554 872.51 815.404 870.25 814.054 864.75C813.264 861.52 812.864 857.96 813.354 854.7C814.154 849.35 815.584 844.05 817.184 838.87C821.124 826.1 824.004 813.16 823.494 799.72C823.294 794.3 822.504 788.87 821.624 783.5C821.254 781.21 820.144 778.98 819.064 776.88C817.874 774.56 814.504 774.35 813.114 776.49C811.454 779.05 810.004 781.76 808.544 784.45C804.244 792.38 798.294 798.86 791.114 804.24C789.484 805.46 787.804 806.7 785.974 807.55C779.624 810.51 775.214 807.68 775.314 800.52C775.364 797.15 776.024 793.76 776.724 790.44C780.024 774.69 785.074 759.59 792.994 745.47C800.714 731.7 811.234 720.95 825.314 713.7C826.994 712.83 829.294 712.47 829.784 709.8L829.774 709.79Z" fill="white"/>
<path d="M816.274 714.439C815.384 712.849 814.874 712.009 814.434 711.139C810.784 704.049 811.994 699.539 818.974 696.189C821.984 694.739 825.394 693.799 828.714 693.369C845.024 691.259 861.384 691.469 877.644 693.659C881.914 694.239 886.324 695.85 890.034 698.05C898.634 703.15 898.574 712.1 890.304 717.74C888.974 718.65 887.544 719.429 885.574 720.629C886.924 721.699 887.674 722.379 888.504 722.939C899.824 730.669 906.114 741.67 909.074 754.78C913.604 774.77 913.534 794.719 907.554 814.379C905.784 820.179 902.944 825.75 899.944 831.06C896.194 837.72 890.534 841.77 882.344 840.949C881.024 840.819 879.684 840.929 878.234 840.929C876.414 844.589 874.934 848.02 873.064 851.22C870.494 855.63 868.024 860.169 864.824 864.109C856.684 874.149 849.264 875.16 838.114 868.07C836.894 868.92 835.564 869.94 834.144 870.81C832.404 871.88 830.674 872.99 828.814 873.8C818.904 878.13 810.844 873.63 809.934 862.77C809.514 857.76 810.144 852.569 810.994 847.589C811.734 843.259 813.454 839.099 814.754 834.859C818.474 822.709 820.594 810.329 819.834 797.589C819.594 793.529 818.864 789.49 818.204 785.47C817.944 783.9 817.254 782.41 816.564 780.27C813.304 781.86 812.484 784.509 811.274 786.709C806.414 795.549 799.674 802.719 791.494 808.459C788.794 810.359 785.514 811.81 782.294 812.52C777.884 813.48 774.054 811.049 772.804 806.699C771.974 803.839 771.504 800.599 771.954 797.699C775.444 774.849 782.874 753.439 795.964 734.189C801.204 726.489 808.104 720.429 816.264 714.449L816.274 714.439ZM829.774 709.79C829.284 712.46 826.984 712.819 825.304 713.689C811.224 720.939 800.704 731.689 792.984 745.459C785.064 759.579 780.014 774.679 776.714 790.429C776.024 793.749 775.354 797.14 775.304 800.51C775.204 807.67 779.614 810.5 785.964 807.54C787.794 806.69 789.474 805.45 791.104 804.23C798.284 798.85 804.234 792.369 808.534 784.439C809.994 781.749 811.444 779.04 813.104 776.48C814.494 774.34 817.864 774.549 819.054 776.869C820.134 778.969 821.244 781.2 821.614 783.49C822.484 788.86 823.274 794.279 823.484 799.709C823.994 813.149 821.104 826.089 817.174 838.859C815.574 844.039 814.154 849.339 813.344 854.689C812.854 857.939 813.254 861.51 814.044 864.74C815.394 870.24 819.544 872.5 824.964 871.01C831.104 869.32 836.144 865.709 839.574 860.439C842.334 856.199 844.804 851.609 846.494 846.859C853.574 827.009 856.474 806.58 854.024 785.53C853.684 782.64 852.824 779.749 854.374 776.389C855.264 777.569 856.264 778.279 856.354 779.089C857.714 791.609 859.214 804.1 857.194 816.74C854.554 833.3 850.754 849.45 842.154 863.97C844.574 868.73 848.184 869.679 852.594 868.419C857.414 867.049 860.844 863.769 863.784 859.899C868.784 853.329 872.164 845.879 875.364 838.349C881.864 823.089 884.474 807.04 885.064 790.57C885.174 787.62 884.124 784.4 887.044 781.26C889.644 800.34 886.014 818.1 880.234 835.82C887.524 838.55 892.354 835.32 896.294 830.07C901.294 823.41 904.024 815.669 905.934 807.699C909.404 793.259 909.274 778.62 907.394 764.01C905.044 745.78 897.164 730.94 880.204 722.05C879.114 721.48 878.354 720.279 876.734 718.679C880.724 717.469 883.944 716.72 886.994 715.52C893.654 712.9 894.734 706.24 888.944 702.03C886.014 699.9 882.384 698.26 878.834 697.54C862.654 694.27 846.274 694.93 829.954 696.25C826.354 696.54 822.694 698.11 819.404 699.78C815.374 701.83 814.994 705.17 817.914 709.08C818.654 710.08 820.054 710.59 820.754 711.06C824.164 711.02 826.614 707.98 829.764 709.78L829.774 709.79Z" fill="black" stroke="black" stroke-width="0.5" stroke-miterlimit="10"/>
<path d="M82.7838 709.79C85.9338 707.99 88.3838 711.03 91.7938 711.07C92.4938 710.6 93.8939 710.08 94.6339 709.09C97.5539 705.18 97.1739 701.84 93.1439 699.79C89.8639 698.12 86.2039 696.55 82.5939 696.26C66.2739 694.94 49.894 694.28 33.714 697.55C30.164 698.27 26.5339 699.91 23.6039 702.04C17.8139 706.25 18.8938 712.91 25.5538 715.53C28.6038 716.73 31.8238 717.48 35.8138 718.69C34.2038 720.29 33.4339 721.49 32.3439 722.06C15.3839 730.95 7.50391 745.79 5.15391 764.02C3.27391 778.62 3.14387 793.27 6.61387 807.71C8.53387 815.69 11.2638 823.43 16.2538 830.08C20.1938 835.33 25.0238 838.56 32.3138 835.83C26.5238 818.11 22.8938 800.35 25.5038 781.27C28.4238 784.41 27.384 787.63 27.484 790.58C28.074 807.05 30.6839 823.1 37.1839 838.36C40.3939 845.89 43.7638 853.34 48.7638 859.91C51.7038 863.78 55.134 867.06 59.954 868.43C64.364 869.68 67.9839 868.73 70.3939 863.98C61.7939 849.46 57.9939 833.31 55.3539 816.75C53.3339 804.11 54.834 791.62 56.194 779.1C56.284 778.29 57.2839 777.58 58.1739 776.4C59.7339 779.76 58.8638 782.65 58.5238 785.54C56.0638 806.59 58.9738 827.02 66.0538 846.87C67.7538 851.63 70.214 856.21 72.974 860.45C76.404 865.72 81.4438 869.33 87.5838 871.02C93.0038 872.51 97.1538 870.25 98.5038 864.75C99.2938 861.52 99.694 857.96 99.204 854.7C98.404 849.35 96.9739 844.05 95.3739 838.87C91.4339 826.1 88.5538 813.16 89.0638 799.72C89.2638 794.3 90.0539 788.87 90.9339 783.5C91.3039 781.21 92.4138 778.98 93.4938 776.88C94.6838 774.56 98.054 774.35 99.444 776.49C101.104 779.05 102.554 781.76 104.014 784.45C108.314 792.38 114.264 798.86 121.444 804.24C123.074 805.46 124.754 806.7 126.584 807.55C132.934 810.51 137.344 807.68 137.244 800.52C137.194 797.15 136.534 793.76 135.834 790.44C132.534 774.69 127.484 759.59 119.564 745.47C111.844 731.7 101.324 720.95 87.2438 713.7C85.5638 712.83 83.2638 712.47 82.7738 709.8L82.7838 709.79Z" fill="white"/>
<path d="M116.564 734.18C129.644 753.42 137.074 774.84 140.574 797.69C141.014 800.59 140.544 803.83 139.724 806.69C138.464 811.04 134.634 813.48 130.234 812.51C127.014 811.81 123.744 810.35 121.034 808.45C112.854 802.7 106.114 795.54 101.254 786.7C100.044 784.5 99.2239 781.85 95.9639 780.26C95.2739 782.4 94.5837 783.9 94.3237 785.46C93.6637 789.48 92.9339 793.52 92.6939 797.58C91.9339 810.32 94.0537 822.7 97.7737 834.85C99.0737 839.08 100.794 843.25 101.534 847.58C102.384 852.57 103.024 857.76 102.594 862.76C101.684 873.62 93.6239 878.12 83.7139 873.79C81.8539 872.98 80.1138 871.87 78.3838 870.8C76.9638 869.93 75.6438 868.91 74.4138 868.06C63.2638 875.16 55.8439 874.14 47.7039 864.1C44.5139 860.16 42.0339 855.61 39.4639 851.21C37.5939 848.01 36.1137 844.58 34.2937 840.92C32.8437 840.92 31.5038 840.81 30.1838 840.94C21.9938 841.76 16.3437 837.71 12.5837 831.05C9.59375 825.74 6.74388 820.17 4.97388 814.37C-1.00612 794.71 -1.07614 774.76 3.45386 754.77C6.42386 741.67 12.7037 730.66 24.0237 722.93C24.8537 722.36 25.6039 721.69 26.9539 720.62C24.9839 719.42 23.5539 718.64 22.2239 717.73C13.9539 712.09 13.8937 703.14 22.4937 698.04C26.2037 695.84 30.6138 694.22 34.8838 693.65C51.1538 691.46 67.5037 691.25 83.8137 693.36C87.1337 693.79 90.5437 694.73 93.5537 696.18C100.534 699.54 101.744 704.05 98.0938 711.13C97.6438 712 97.1437 712.83 96.2537 714.43C104.414 720.41 111.314 726.47 116.554 734.17L116.564 734.18ZM91.7937 711.07C92.4937 710.6 93.8938 710.08 94.6338 709.09C97.5538 705.18 97.1738 701.84 93.1438 699.79C89.8638 698.12 86.2038 696.55 82.5938 696.26C66.2738 694.94 49.8939 694.28 33.7139 697.55C30.1639 698.27 26.5338 699.91 23.6038 702.04C17.8138 706.25 18.8937 712.91 25.5537 715.53C28.6037 716.73 31.8237 717.48 35.8137 718.69C34.2037 720.29 33.4338 721.49 32.3438 722.06C15.3838 730.95 7.50381 745.79 5.15381 764.02C3.27381 778.62 3.14378 793.27 6.61378 807.71C8.53378 815.69 11.2637 823.43 16.2537 830.08C20.1937 835.33 25.0237 838.56 32.3137 835.83C26.5237 818.11 22.8937 800.35 25.5037 781.27C28.4237 784.41 27.3839 787.63 27.4839 790.58C28.0739 807.05 30.6838 823.1 37.1838 838.36C40.3938 845.89 43.7637 853.34 48.7637 859.91C51.7037 863.78 55.1339 867.06 59.9539 868.43C64.3639 869.68 67.9838 868.73 70.3938 863.98C61.7938 849.46 57.9938 833.31 55.3538 816.75C53.3338 804.11 54.8339 791.62 56.1939 779.1C56.2839 778.29 57.2838 777.58 58.1738 776.4C59.7338 779.76 58.8637 782.65 58.5237 785.54C56.0637 806.59 58.9737 827.02 66.0537 846.87C67.7537 851.63 70.2139 856.21 72.9739 860.45C76.4039 865.72 81.4437 869.33 87.5837 871.02C93.0037 872.51 97.1537 870.25 98.5037 864.75C99.2937 861.52 99.6939 857.96 99.2039 854.7C98.4039 849.35 96.9738 844.05 95.3738 838.87C91.4338 826.1 88.5537 813.16 89.0637 799.72C89.2637 794.3 90.0538 788.87 90.9338 783.5C91.3038 781.21 92.4137 778.98 93.4937 776.88C94.6837 774.56 98.0539 774.35 99.4439 776.49C101.104 779.05 102.554 781.76 104.014 784.45C108.314 792.38 114.264 798.86 121.444 804.24C123.074 805.46 124.754 806.7 126.584 807.55C132.934 810.51 137.344 807.68 137.244 800.52C137.194 797.15 136.534 793.76 135.834 790.44C132.534 774.69 127.484 759.59 119.564 745.47C111.844 731.7 101.324 720.95 87.2437 713.7C85.5637 712.83 83.2637 712.47 82.7737 709.8C85.9237 708 88.3737 711.04 91.7837 711.08L91.7937 711.07Z" fill="black" stroke="black" stroke-width="0.5" stroke-miterlimit="10"/>
</svg>
